<svg width="23" height="22" fill="none" xmlns="http://www.w3.org/2000/svg"><path d="M11.5 2h4.2c2.8.1 4.2 1.4 4.3 4.3a73 73 0 010 8.5c0 2.8-1.4 4.1-4.2 4.3a72.7 72.7 0 01-8.5 0c-2.8 0-4.2-1.4-4.3-4.3a72.6 72.6 0 010-8.4C3 3.5 4.3 2.2 7.1 2h4.3zm0-2L7 .2c-3.8.2-6 2.4-6 6.2a73.8 73.8 0 000 8.6c.2 3.9 2.3 6 6.1 6.1a74.8 74.8 0 008.7 0c3.8-.2 6-2.4 6-6.2a73.8 73.8 0 000-8.6c-.2-3.8-2.3-6-6.1-6.1h-4.4zm0 5.2a5.4 5.4 0 100 10.7 5.4 5.4 0 000-10.7zm0 8.9a3.5 3.5 0 110-7 3.5 3.5 0 010 7zm5.6-10.4a1.3 1.3 0 100 2.5 1.3 1.3 0 000-2.5z" fill="#ABBCD5"/></svg>