<svg width="111" height="43" fill="none" xmlns="http://www.w3.org/2000/svg"><path d="M41.5 32.2a4 4 0 003.7-1.9l.1 1.7h2.4v-7.1c0-2.9-1.9-4.9-5-4.9-2.4 0-3.9 1-5 2.6l2.2 1.6c.5-.9 1.4-1.7 2.8-1.7 1.5 0 2.3 1 2.3 2.5h-3c-2.7 0-4.7.9-4.7 3.4s1.8 3.8 4.2 3.8zm.4-2.4c-1.1 0-1.7-.5-1.7-1.3 0-.7.6-1.4 1.9-1.4H45c0 1.4-1.5 2.7-3 2.7zM50.8 32h2.8v-6.4c0-2 1-3 2.6-3 1.5 0 2.3 1.2 2.3 2.7V32h2.8v-7c0-2.5-1.2-5-4.3-5-1.1 0-2.5.5-3.4 1.7v-1.4h-2.8V32zM71.8 15.4v6c-.8-1-2.1-1.4-3.4-1.4-3.2 0-5 3-5 6.1 0 3.3 1.8 6.1 5 6.1a4 4 0 003.5-1.5L72 32h2.7V15.4h-3zm-2.6 14.2c-2 0-2.9-1.5-2.9-3.5 0-1.9 1-3.5 2.9-3.5 2 0 2.8 1.6 2.8 3.5 0 2-.9 3.5-2.8 3.5zM78.1 32H81v-3.4l1.8-2 3.4 5.4h3.4l-4.9-7.2 4.4-4.5h-3.7L81 25.2v-9.8H78V32zM91.1 18h3v-2.6h-3v2.7zm.1 14H94V20.3h-2.8V32zM101.6 32.2c.8 0 1.7-.2 2.1-.3v-2.6a4 4 0 01-1.6.4c-.8 0-1.3-.3-1.3-1.4v-5.6h3v-2.4h-3v-5l-2.8 2v3h-2v2.4h2v6c0 2.2 1.3 3.5 3.6 3.5zM107 32h2.8v-3H107v3z" fill="#335EEA"/><path fill-rule="evenodd" clip-rule="evenodd" d="M45.3 32l-.1-1.7-.3.4a4 4 0 01-3.4 1.5c-2.4 0-4.2-1.3-4.2-3.8s2-3.4 4.6-3.4h3v-.3c0-1.3-.8-2.2-2.2-2.2a3.1 3.1 0 00-2.8 1.7l-2.2-1.6.2-.2a5.7 5.7 0 014.7-2.4c3.2 0 5.1 2 5.1 4.9V32h-2.4zm-.6-7.3h-2.8c-1.3 0-2.6.2-3.5.8-.9.6-1.4 1.5-1.4 2.9 0 1.3.5 2.4 1.3 3 .8.8 2 1.1 3.2 1.1.7 0 1.4 0 2.1-.4.5-.2 1-.6 1.3-1l.2 1.2H48v-7.4a5 5 0 00-1.4-3.7c-1-1-2.3-1.5-4-1.5a6 6 0 00-5.1 2.7l-.2.3 2.7 2 .2-.4c.4-.7 1.2-1.5 2.5-1.5.6 0 1.1.3 1.5.6l.5 1.3zm-3.9 4.5c.2.2.6.3 1.1.3 1.4 0 2.5-1 2.7-2.1h-2.5c-.6 0-1 .1-1.3.3a1 1 0 00-.3.8c0 .3.1.5.3.7zm1.3-2.1c-1.3 0-2 .7-2 1.4 0 .8.7 1.3 1.8 1.3a3 3 0 003-2.4V27h-2.8zm8.4 5.2V20h3.4v1c1-1 2.1-1.3 3.1-1.3 1.7 0 2.8.7 3.6 1.7a6 6 0 011 3.6v7.3h-3.4v-7c0-.7-.2-1.3-.5-1.7-.4-.4-.8-.6-1.5-.6s-1.3.2-1.7.6c-.4.4-.6 1-.6 2v6.7h-3.4zm3.4-11l-.3.4v-1.4h-2.8V32h2.8v-6.4c0-2 1-3 2.6-3 1.5 0 2.3 1.2 2.3 2.7V32h2.8v-7c0-2.5-1.2-5-4.3-5-1 0-2.2.4-3.1 1.3zm17.6-6.2H75v17.2h-3.3v-.9c-1 .8-2 1.1-3.2 1.1-1.8 0-3.1-.7-4-1.9a7.3 7.3 0 01-1.4-4.5c0-1.6.5-3.2 1.4-4.4.9-1.2 2.2-2 4-2 1 0 2.1.3 3 1v-5.6zm.3 6.4l-.3-.4c-.8-.7-2-1-3-1-3.3 0-5 2.8-5 6 0 3.3 1.7 6.1 5 6.1a4.2 4.2 0 003.4-1.5L72 32h2.7V15.4h-3v6zm-4.6 7c.5.5 1 .8 2 .8.9 0 1.5-.3 1.9-.8.4-.6.6-1.4.6-2.4a4 4 0 00-.6-2.3c-.4-.5-1-.9-2-.9-.8 0-1.4.4-1.9 1-.4.5-.6 1.3-.6 2.2 0 1 .2 1.8.6 2.4zm10.6 3.8V15.1h3.5v9.3l4-4.4h4.5l-4.7 4.9 5 7.4h-4l-3.3-5.2-1.5 1.6v3.6h-3.5zm3.2-3.7l1.8-2 3.4 5.4h3.4l-4.9-7.2 4.4-4.5h-3.7L81 25.2v-9.8H78V32H81v-3.4zm9.8-10.2V15h3.6v3.3h-3.6zm.1 13.9V20h3.4v12.3H91zm3.2-14.2h-3v-2.7h3v2.7zm0 13.9h-2.9V20.3H94V32zm10 0l-.3.2a7 7 0 01-2.2.3c-1.2 0-2.2-.3-3-1-.6-.7-1-1.6-1-2.7V23h-1.9v-3h2v-2.8l3.4-2.4V20h3v3h-3v5.3c0 .5 0 .7.2.9l.8.2c.5 0 1.1-.2 1.5-.4l.4-.2v3.3zm-3.3-11.7h3v2.4h-3v5.6c0 1 .5 1.4 1.3 1.4a3.8 3.8 0 001.6-.4v2.6c-.4.1-1.3.3-2.1.3-2.3 0-3.7-1.3-3.7-3.4v-6.1H96v-2.4h2v-3l2.8-2v5zm5.8 12v-3.7h3.5v3.7h-3.5zm3.2-.3H107v-3h3v3zm-43.5-5.9c0 2 1 3.5 2.9 3.5 2 0 2.8-1.5 2.8-3.5s-.9-3.5-2.8-3.5c-2 0-2.9 1.6-2.9 3.5z" fill="#335EEA"/><path d="M6.7 16.4C5.3 23.1 8 30 12 33a15 15 0 0022.8-6L24 28.5c-1 .1-2-.6-2.2-1.6L20 14.6 6.7 16.4z" fill="#335EEA"/><path d="M6.7 16.4l15.4-2.1c1-.2 2 .5 2 1.6l1.3 8.6 10.5-1.4a15 15 0 00-29.2-6.7z" fill="#335EEA"/></svg>