<svg width="16" height="16" fill="none" xmlns="http://www.w3.org/2000/svg"><path fill-rule="evenodd" clip-rule="evenodd" d="M16 6.2c0 .2-.1.4-.3.5l-3.4 3.6.8 5v.2c0 .3-.1.5-.4.5l-.4-.1L8 13.5l-4.3 2.4-.4.1c-.3 0-.4-.2-.4-.5v-.2l.8-5L.2 6.7 0 6.2c0-.3.3-.4.5-.5L5.4 5 7.5.4c.1-.2.3-.4.5-.4s.4.2.5.4L10.6 5l4.9.7c.2 0 .5.2.5.5z" fill="url(#paint0_linear)"/><defs><linearGradient id="paint0_linear" x1="9" y1="23.5" x2="24" y2="7.5" gradientUnits="userSpaceOnUse"><stop stop-color="#FFC726"/><stop offset="1" stop-color="#F99716"/></linearGradient></defs></svg>